<svg width="24" height="24" viewBox="0 0 24 24" fill="none" xmlns="http://www.w3.org/2000/svg">
  <path d="M 16 6 C 13.5 4.5 9.5 4 7 6 C 4.5 7.8 3 10.5 3 13.3 C 3 16.1 4.3 19 7 20.5 C 9.6 22 13 22 16 20.3" stroke="currentColor" stroke-width="1.6" stroke-linecap="round" fill="none"/>
  <path d="M 16 6 C 17 5.4 18.3 5.7 18.5 7 C 18.7 8.3 17.5 8.9 16.3 8.5 C 15 8.1 14.5 7 15.3 6.3" stroke="currentColor" stroke-width="1.4" stroke-linecap="round" fill="none"/>
  <path d="M 16 20.3 C 17 21 18 20.7 18.3 19.5 C 18.5 18.4 17.4 17.7 16.4 18 C 15.4 18.4 15.1 19.4 15.7 19.9" stroke="currentColor" stroke-width="1.4" stroke-linecap="round" fill="none"/>
</svg>
